<?xml version="1.0" standalone="no"?>
<!DOCTYPE svg PUBLIC "-//W3C//DTD SVG 20010904//EN"
 "http://www.w3.org/TR/2001/REC-SVG-20010904/DTD/svg10.dtd">
<svg version="1.0" xmlns="http://www.w3.org/2000/svg"
 width="225.000000pt" height="225.000000pt" viewBox="0 0 225.000000 225.000000"
 preserveAspectRatio="xMidYMid meet">
<metadata>
Created by potrace 1.14, written by Peter Selinger 2001-2017
</metadata>
<g transform="translate(0.000000,225.000000) scale(0.100000,-0.100000)"
fill="#000000" stroke="none">
<path d="M740 1515 c0 -88 2 -95 20 -95 17 0 19 8 22 66 l3 66 42 -66 c29 -46
48 -66 63 -66 19 0 20 6 20 95 0 78 -3 95 -15 95 -12 0 -15 -13 -15 -60 0 -33
-3 -60 -7 -60 -5 0 -25 27 -47 60 -29 46 -44 60 -62 60 -24 0 -24 -2 -24 -95z"/>
<path d="M960 1515 l0 -95 60 0 c47 0 60 3 60 15 0 11 -11 15 -40 15 -36 0
-40 3 -40 25 0 22 4 25 35 25 24 0 35 5 35 15 0 11 -11 15 -36 15 -31 0 -35 3
-32 23 2 17 11 23 36 25 20 2 32 9 32 18 0 10 -14 14 -55 14 l-55 0 0 -95z"/>
<path d="M1095 1588 c43 -171 40 -163 68 -166 23 -3 27 1 37 40 25 99 25 98
45 25 16 -58 21 -67 41 -67 19 0 25 8 34 43 6 23 18 64 26 91 18 62 18 58 -8
54 -18 -2 -24 -13 -34 -61 -14 -69 -19 -77 -28 -40 -24 99 -27 104 -48 101
-17 -2 -26 -18 -43 -73 l-22 -70 -13 73 c-12 65 -15 72 -37 72 -19 0 -22 -4
-18 -22z"/>
<path d="M1395 1594 c-26 -27 -15 -66 28 -93 51 -33 49 -54 -3 -49 -32 3 -40
0 -40 -13 0 -22 50 -32 90 -18 19 7 32 20 37 37 6 26 -3 37 -68 83 -32 22 -16
43 27 36 29 -5 34 -3 34 14 0 16 -7 19 -44 19 -28 0 -51 -6 -61 -16z"/>
<path d="M712 1278 l3 -23 410 0 410 0 3 23 3 22 -416 0 -416 0 3 -22z"/>
<path d="M713 1134 c-3 -8 -1 -20 4 -25 5 -5 170 -8 414 -7 396 3 404 3 404
23 0 20 -8 20 -408 23 -364 2 -408 1 -414 -14z"/>
<path d="M717 993 c-4 -3 -7 -15 -7 -25 0 -17 13 -18 220 -18 l220 0 0 25 0
25 -213 0 c-118 0 -217 -3 -220 -7z"/>
<path d="M717 843 c-4 -3 -7 -15 -7 -25 0 -17 13 -18 220 -18 l220 0 0 25 0
25 -213 0 c-118 0 -217 -3 -220 -7z"/>
<path d="M717 693 c-4 -3 -7 -15 -7 -25 0 -17 13 -18 220 -18 l220 0 0 25 0
25 -213 0 c-118 0 -217 -3 -220 -7z"/>
</g>
</svg>
